# xmcd
#
# Track frame offsets: 
#        150
#        13135
#        26524
#        38043
#        51349
#        65613
#        77886
#        89306
#        101346
#        118376
#        130510
#        143300
#        156066
#        166545
#        178430
#        189406
#        202778
#        213044
#        226506
#        238542
#        251932
#        265464
#        279005
#        293742
#        304320
#
# Disc length: 4228 seconds
#
# Revision: 1
# Processed by: cddbd v1.5.2PL0 Copyright (c) Steve Scherf et al.
# Submitted via: ExactAudioCopy v1.0b1
#
DISCID=4e108219
DTITLE=Various Artist - 100 Blues Classics - CD 2
DYEAR=2017
DGENRE=Blues
TTITLE0=Muddy Waters - Mannish Boy
TTITLE1=B.B. King - Sweet Sixteen Pt. 1
TTITLE2=Little Walter - My Babe
TTITLE3=John Lee Hooker - Time Is Marching
TTITLE4=Lowell Fulson - Reconsider Baby
TTITLE5=Bobby Blue Band - It's My Life, Baby
TTITLE6=Howlin' Wolf - Sitting On Top Of The World
TTITLE7=Elmore James - Blues Before Sunrise
TTITLE8=T-Bone Walker - T-Bone Blues
TTITLE9=Robert Johnson - Cross Road Blues
TTITLE10=Otis Rush - Three Times A Fool
TTITLE11=Muddy Waters - Hoochie Coochie
TTITLE12=Sonny Terry - Beautiful City
TTITLE13=Freddy King - I'm Tore Down
TTITLE14=Lightnin' Slim - I'm A Rollin' Stone
TTITLE15=Albert King - Don't Throw Your Love On Me So Strong
TTITLE16=Memphis Slim - Good Understanding (& Willie Dixon)
TTITLE17=Bobby Blue Band - Farther Up The Road
TTITLE18=Lightnin’ Hopkins - Shotgun Blues
TTITLE19=Eddie Taylor - Bad Boy
TTITLE20=Guitar Slim - The Things That I Used To Do
TTITLE21=Robert Johnson - Terraplane Blues
TTITLE22=Muddy Waters - Still A Fool
TTITLE23=Eddie 'Blues Man' Kirkland - Down On My Knees
TTITLE24=Howlin' Wolf - I Ain't Superstitious
EXTD=
EXTT0=
EXTT1=
EXTT2=
EXTT3=
EXTT4=
EXTT5=
EXTT6=
EXTT7=
EXTT8=
EXTT9=
EXTT10=
EXTT11=
EXTT12=
EXTT13=
EXTT14=
EXTT15=
EXTT16=
EXTT17=
EXTT18=
EXTT19=
EXTT20=
EXTT21=
EXTT22=
EXTT23=
EXTT24=
PLAYORDER=
